<svg width="251" height="91" viewBox="0 0 251 91" fill="none" xmlns="http://www.w3.org/2000/svg">
<path d="M122.462 1.26098L112.459 34.9609H112.32L102.117 1.26098H85.3062V52.4321H97.3759L96.9591 13.6063L108.03 52.4321H116.679L127.576 13.9625L127.707 14.0928L127.298 52.4321H139.299V1.26098H122.462ZM141.695 1.26098V52.4321H154.764V1.26098H141.695ZM249.463 23.2758V26.1862C249.463 39.9564 239.365 53.4485 222.146 53.4485C213.575 53.518 205.465 49.539 200.281 42.7017V52.406H188.941L178.703 36.1338L169.291 21.1213L169.638 52.3973H157.117V1.26098H168.388L178.686 18.0197L188.307 33.6491L187.76 1.26098H200.281V10.722C205.621 3.98894 213.792 0.122875 222.389 0.253192C233.938 0.253192 245.07 8.08089 247.978 18.3846H233.278C231.055 14.2318 226.704 11.6689 221.998 11.7385C213.766 11.7385 208.001 18.3846 208.001 26.6206C208.001 34.8567 213.393 41.9893 221.998 41.9893C228.085 41.9893 232.652 38.9834 234.241 33.7533H219.028V23.2671H249.463V23.2758ZM70.0323 1.26098L66.0294 7.10786L54.8801 23.2758H24.4452V33.762H39.7364C38.1474 39.0181 33.58 41.998 27.4844 41.998C25.5133 42.0154 23.5595 41.6244 21.7534 40.8339C16.5261 38.5403 13.4435 33.0583 13.4435 26.6293C13.4435 20.2004 16.6737 15.1788 21.7534 12.92C23.5248 12.1468 25.4351 11.7471 27.3715 11.7471C32.0778 11.6689 36.4368 14.2318 38.651 18.3933H53.3692C52.0319 13.9712 49.4183 10.0356 45.8668 7.07311C40.8305 2.7379 34.4136 0.322694 27.7709 0.253192C12.8965 0.253192 0.375226 11.1216 0.375226 26.6206C0.323127 39.3569 9.27557 50.3557 21.7534 52.8751C23.6637 53.2748 25.6088 53.4746 27.5538 53.4746C30.2196 53.5007 32.8767 53.1705 35.4556 52.4755H50.5992L55.0884 45.0735H69.8934V52.4755H82.9617V1.26098H70.0323ZM69.8934 34.6916H61.323L69.7545 20.4697H69.8934V34.6916Z" fill="#F2F2F2"/>
<path d="M241.596 71.163C238.106 69.686 236.378 68.8433 236.378 66.9928C236.482 65.5506 237.732 64.456 239.174 64.5515C240.771 64.5515 241.726 65.3508 242.065 67.5575H250.123C250.123 63.3874 248.447 60.9027 245.043 59.1825C243.289 58.305 241.344 57.8706 239.382 57.9054C233.521 57.9054 228.259 61.7888 228.259 67.0884C228.259 71.0934 230.629 73.8214 235.848 75.8804C238.739 77.0098 242.265 78.1132 242.265 80.5892C242.265 82.2486 240.919 83.5952 239.269 83.5952C239.252 83.5952 239.226 83.5952 239.208 83.5952C237.211 83.5952 235.891 81.9184 235.848 79.3468H227.746V80.0245C227.746 86.7054 232.314 90.25 239.243 90.25C246.172 90.25 250.375 86.6967 250.375 80.6761C250.375 76.5928 248.612 74.1255 241.588 71.1716L241.596 71.163ZM219.054 64.8904C220.93 64.8556 222.771 65.3421 224.386 66.2891V58.8263C222.701 58.2008 220.921 57.8793 219.124 57.8967C209.694 57.8967 202.4 64.7166 202.4 74.0299C202.4 82.987 209.668 90.2413 218.62 90.2413C218.672 90.2413 218.725 90.2413 218.785 90.2413C220.687 90.2326 222.58 89.9112 224.386 89.3117V81.7794C222.832 82.8393 220.973 83.378 219.098 83.3085C213.975 83.3085 210.528 79.008 210.528 74.0473C210.528 69.0866 214.062 64.8991 219.054 64.8991V64.8904ZM190.617 58.4875V89.6419H198.753V58.4875H190.617ZM176.003 57.8967C172.998 57.7577 170.133 59.1564 168.379 61.6064H168.249V58.4875H160.477V89.6419H168.631V70.3637C168.631 67.1231 170.48 64.9338 173.415 64.9338C176.828 64.9338 178.504 67.1666 178.504 70.9979V89.6506H186.64V69.9467C186.64 61.728 182.758 57.8967 176.003 57.8967ZM95.839 64.8991C97.6972 64.873 99.5294 65.3508 101.136 66.2891V58.8263C99.4512 58.2008 97.6712 57.8793 95.8737 57.8967C86.435 57.8967 79.1498 64.7166 79.1498 74.0299C79.1498 82.987 86.4177 90.2413 95.3701 90.2413C95.4222 90.2413 95.4743 90.2413 95.5351 90.2413C97.4367 90.2326 99.3297 89.9112 101.136 89.3117V81.7794C99.5902 82.8306 97.7493 83.3693 95.8737 83.3085C90.7506 83.3085 87.3034 79.008 87.3034 74.0473C87.3034 69.0866 90.8375 64.8991 95.8303 64.8991H95.839ZM70.8399 64.9077C72.6894 64.8817 74.5042 65.3682 76.102 66.2978V58.835C74.4261 58.1921 72.6373 57.8706 70.8399 57.9054C61.7485 57.9054 54.1159 63.9695 54.1159 74.1689C54.1159 83.4649 61.2796 90.25 70.4926 90.25C72.3855 90.2413 74.2611 89.9286 76.0499 89.3204V81.7881C74.5129 82.8393 72.6894 83.378 70.8312 83.3172C67.1408 83.3432 63.8672 80.9193 62.8339 77.3747H75.7025V70.3115H62.9381C64.1625 67.0362 67.2971 64.8817 70.7878 64.9077H70.8312H70.8399ZM42.437 58.5048L30.3759 75.6458V58.5048H22.2657L0.375244 89.6506H9.7358L22.0921 71.0761H22.1789V89.6506H28.9432L42.2633 71.0761H42.3762V89.6506H50.5298V58.4962H42.437V58.5048ZM148.381 58.5048L133.889 79.1123L132.213 81.5014V58.4875H124.077V70.2073H113.648V58.5048H105.495V89.6593H113.648V77.1923H124.077V89.6593H136.268L138.048 86.801L139.047 85.159H148.277V89.6593H156.413V58.5048H148.381ZM148.303 78.8343H142.954L148.216 70.2073H148.303V78.8343Z" fill="#F2F2F2"/>
</svg>
