<?xml version="1.0" encoding="UTF-8"?>
<svg xmlns="http://www.w3.org/2000/svg" viewBox="0 0 671.85 159.96">
	<defs>
		<style>
			.cls-1 {
				fill: #fff;
			}

			.cls-1,
			.cls-2,
			.cls-3,
			.cls-4,
			.cls-5,
			.cls-6,
			.cls-7,
			.cls-8 {
				stroke-width: 0px;
			}

			.cls-2 {
				fill: #f19557;
			}

			.cls-3 {
				fill: #d96821;
			}

			.cls-4 {
				fill: #c55a11;
			}

			.cls-5 {
				fill: #ed7d31;
			}

			.cls-6 {
				fill: #ef8b48;
			}

			.cls-7 {
				fill: #f2a067;
			}

			.cls-8 {
				fill: #f5b183;
			}
		</style>
	</defs>
	<g id="LynxBet_type_grey" data-name="LynxBet type grey">
		<path class="cls-1"
			d="m553.88,71.28c5.46-3.68,8.81-9.48,8.81-16.39,0-11.59-9.59-20.4-22.3-20.4h-37.01v78.04h39.24c13.49,0,23.86-9.48,23.86-21.85,0-8.7-5.02-15.83-12.6-19.4Zm-40.47-27.42h26.98c6.8,0,11.93,5.02,11.93,11.71s-5.13,11.71-11.93,11.71h-26.98v-23.41Zm29.21,59.31h-29.21v-26.53h29.21c7.58,0,13.38,5.8,13.38,13.27s-5.8,13.27-13.38,13.27Zm90.09-19.73c0-17.17-12.93-30.1-29.88-30.1s-29.88,12.93-29.88,30.21,13.27,30.21,30.88,30.21c11.48,0,21.07-5.57,26.31-14.27l-9.14-2.9c-3.79,5.13-9.92,8.36-17.17,8.36-11.26,0-19.84-7.69-21.18-18.17h49.83c.11-1.12.22-2.23.22-3.34Zm-49.94-4.24c1.78-10.03,9.92-17.17,19.84-17.17s18.62,7.13,20.4,17.17h-40.24Zm54.18-16.39v-8.25h9.36v-11.59h9.36v11.59h16.17v8.25h-16.17v31.55c0,5.24,3.68,9.14,8.36,9.14h7.8v9.03h-8.47c-9.7,0-17.06-7.36-17.06-17.06v-32.66h-9.36Zm-383.29-28.32h17.73v61.76h37.68v16.28h-55.41V34.49Zm69.79,20.07l12.6,35.79,13.04-35.79h17.28l-24.64,63.99c-5.35,13.49-13.71,19.06-27.98,19.06h-2.01v-15.94h2.12c7.47,0,11.71-2.56,13.94-8.7l.33-.78-21.96-57.64h17.28Zm64.99,0v5.91c2.56-3.23,7.58-7.36,15.83-7.36,12.49,0,22.19,9.48,22.19,22.18v37.23h-16.72v-32.78c0-6.35-4.57-11.15-10.59-11.15s-10.7,4.79-10.7,11.15v32.78h-16.72v-57.97h16.72Zm105.57,57.97h-19.51l-11.59-16.83-11.48,16.83h-19.62,0s30.93-43.25,30.93-43.25h0s10.53-14.72,10.53-14.72h19.51l-19.84,28.09,21.07,29.88Zm-43.44-33.28l-17.54-24.69h19.51l7.77,11.2-9.74,13.49Z" />
	</g>
	<g id="Lynx_icon_orange" data-name="Lynx icon orange">
		<g>
			<polygon class="cls-2"
				points="178.24 0 164.16 10.9 163.07 21.71 126.8 53.89 132.25 63.43 106.35 84.97 170.74 55.66 170.84 23.96 174.73 17.93 178.24 0" />
			<polygon class="cls-5"
				points="106.35 143 93.94 128.33 91.2 119.41 74.17 143.33 94.21 159.96 106.35 159.96 106.35 149.74 91.62 149.74 106.35 143" />
			<polygon class="cls-2"
				points="106.32 35.46 75.92 35.46 75.92 15.82 89.07 22.59 106.32 9.72 123.58 22.58 136.72 15.82 136.72 35.46 106.32 35.46" />
			<polygon class="cls-8"
				points="41.96 55.66 49.63 70.79 61.63 95.34 50.45 106.24 56.72 132.42 45.54 135.15 27.81 113.61 0 112.52 41.96 55.66" />
			<polygon class="cls-7"
				points="41.96 55.66 106.35 84.97 106.35 128.33 93.94 128.33 85.22 99.94 49.63 70.79 41.96 55.66" />
			<polygon class="cls-7" points="50.45 106.24 78.26 125.33 74.17 143.33 56.72 132.42 50.45 106.24" />
			<polygon class="cls-3"
				points="121.5 119.41 118.76 128.33 106.35 143 121.07 149.74 106.35 149.74 106.35 149.74 106.35 159.96 118.48 159.96 138.53 143.33 121.5 119.41" />
			<polygon class="cls-4"
				points="170.74 55.66 163.07 70.79 151.07 95.34 162.25 106.24 155.98 132.42 167.16 135.15 184.88 113.61 212.7 112.52 170.74 55.66" />
			<polygon class="cls-6"
				points="170.74 55.66 106.35 84.97 106.35 128.33 118.76 128.33 127.48 99.94 163.07 70.79 170.74 55.66" />
			<polygon class="cls-5" points="162.25 106.24 134.44 125.33 138.53 143.33 155.98 132.42 162.25 106.24" />
			<polygon class="cls-8"
				points="34.45 0 48.54 10.9 49.63 21.71 85.9 53.89 80.44 63.43 106.35 84.97 41.96 55.66 41.86 23.96 37.97 17.93 34.45 0" />
		</g>
	</g>
</svg>