<svg width="182" height="70" viewBox="0 0 182 70" fill="none" xmlns="http://www.w3.org/2000/svg">
    <path
        d="M180.02 8.48209C180.635 8.14393 181.141 7.64869 181.483 7.05091C181.823 6.42428 182 5.72782 182 5.02087C182 4.31392 181.823 3.61745 181.483 2.99082C181.141 2.39459 180.635 1.90108 180.02 1.56472C179.349 1.21995 178.601 1.03961 177.841 1.03961C177.081 1.03961 176.332 1.21995 175.662 1.56472C175.052 1.9055 174.548 2.39805 174.204 2.99082C173.86 3.61614 173.68 4.31312 173.68 5.02087C173.68 5.72861 173.86 6.42559 174.204 7.05091C174.545 7.64724 175.049 8.14215 175.662 8.48209C176.332 8.82859 177.08 9.00991 177.841 9.00991C178.601 9.00991 179.35 8.82859 180.02 8.48209ZM179.778 7.21332L178.304 5.18327L177.635 5.45225L178.851 7.21332H179.778ZM176.093 7.81724C175.602 7.54072 175.199 7.1385 174.93 6.65505C174.66 6.14865 174.52 5.58758 174.52 5.01833C174.52 4.44907 174.66 3.888 174.93 3.3816C175.201 2.89924 175.603 2.49736 176.093 2.21939C176.622 1.93953 177.216 1.79282 177.82 1.79282C178.423 1.79282 179.017 1.93953 179.546 2.21939C180.033 2.49949 180.434 2.90095 180.704 3.3816C180.974 3.888 181.115 4.44907 181.115 5.01833C181.115 5.58758 180.974 6.14865 180.704 6.65505C180.435 7.13706 180.035 7.53895 179.546 7.81724C179.018 8.10032 178.424 8.24889 177.82 8.24889C177.216 8.24889 176.621 8.10032 176.093 7.81724V7.81724ZM176.914 7.21332V5.64003H177.967C178.408 5.65936 178.843 5.52818 179.194 5.26954C179.35 5.14852 179.476 4.99356 179.559 4.81721C179.642 4.64087 179.681 4.44809 179.673 4.25452C179.68 3.99378 179.605 3.73711 179.457 3.51864C179.308 3.30946 179.102 3.14427 178.862 3.04158C178.58 2.92352 178.275 2.86468 177.967 2.86901H176.114V7.21332H176.914ZM176.914 3.46788H177.967C178.208 3.45274 178.445 3.52316 178.636 3.6658C178.785 3.82903 178.868 4.0393 178.868 4.25706C178.868 4.47482 178.785 4.68509 178.636 4.84831C178.445 4.98915 178.207 5.05775 177.967 5.04117H176.914V3.46788V3.46788Z"
        fill="#ffffff" />
    <path
        d="M21.32 70C23.4112 70 25.4555 69.3801 27.1943 68.2188C28.933 67.0574 30.2882 65.4067 31.0885 63.4754C31.8888 61.5441 32.0982 59.419 31.6902 57.3687C31.2822 55.3185 30.2752 53.4352 28.7965 51.9571C27.3178 50.4789 25.4338 49.4723 23.3828 49.0645C21.3318 48.6567 19.2058 48.866 17.2738 49.6659C15.3418 50.4659 13.6904 51.8206 12.5286 53.5587C11.3668 55.2968 10.7467 57.3403 10.7467 59.4307C10.746 60.8189 11.019 62.1936 11.5502 63.4762C12.0813 64.7588 12.8601 65.9243 13.842 66.9058C14.824 67.8874 15.9899 68.6659 17.273 69.1969C18.5561 69.7278 19.9313 70.0007 21.32 70V70Z"
        fill="#F75F2E" />
    <path
        d="M45.24 70C47.3312 70 49.3755 69.3801 51.1143 68.2188C52.853 67.0574 54.2082 65.4067 55.0085 63.4754C55.8088 61.5441 56.0182 59.419 55.6102 57.3687C55.2022 55.3185 54.1952 53.4352 52.7165 51.9571C51.2378 50.4789 49.3538 49.4723 47.3028 49.0645C45.2518 48.6567 43.1258 48.866 41.1938 49.6659C39.2618 50.4659 37.6104 51.8206 36.4486 53.5587C35.2868 55.2968 34.6667 57.3403 34.6667 59.4307C34.666 60.8189 34.939 62.1936 35.4701 63.4762C36.0013 64.7588 36.7801 65.9243 37.762 66.9058C38.744 67.8874 39.9098 68.6659 41.193 69.1969C42.4761 69.7278 43.8513 70.0007 45.24 70V70Z"
        fill="#1F2C66" />
    <path
        d="M69.16 70C71.2512 70 73.2955 69.3801 75.0342 68.2188C76.773 67.0574 78.1282 65.4067 78.9285 63.4754C79.7288 61.5441 79.9381 59.419 79.5302 57.3687C79.1222 55.3185 78.1152 53.4352 76.6365 51.9571C75.1578 50.4789 73.2738 49.4723 71.2228 49.0645C69.1717 48.6567 67.0458 48.866 65.1138 49.6659C63.1817 50.4659 61.5304 51.8206 60.3686 53.5587C59.2068 55.2968 58.5867 57.3403 58.5867 59.4307C58.5867 62.2339 59.7006 64.9222 61.6835 66.9043C63.6664 68.8865 66.3558 70 69.16 70Z"
        fill="#38D8BE" />
    <path
        d="M93.6053 70C95.7306 69.999 97.8078 69.3782 99.5744 68.2162C101.341 67.0542 102.718 65.4032 103.53 63.4718C104.343 61.5404 104.555 59.4154 104.14 57.3655C103.724 55.3156 102.7 53.4328 101.197 51.9552C99.694 50.4776 97.7791 49.4715 95.6946 49.0641C93.6101 48.6567 91.4496 48.8663 89.4862 49.6664C87.5228 50.4665 85.8447 51.8213 84.6641 53.5593C83.4835 55.2973 82.8533 57.3405 82.8533 59.4307C82.8533 60.8191 83.1315 62.1939 83.6719 63.4766C84.2123 64.7593 85.0044 65.9246 86.0028 66.9062C87.0013 67.8877 88.1866 68.6661 89.4911 69.197C90.7956 69.7278 92.1936 70.0007 93.6053 70V70Z"
        fill="#FFCB0D" />
    <path
        d="M118.219 70C120.344 69.999 122.421 69.3782 124.188 68.2162C125.954 67.0542 127.331 65.4032 128.143 63.4718C128.956 61.5404 129.168 59.4154 128.753 57.3655C128.338 55.3156 127.314 53.4328 125.81 51.9552C124.307 50.4776 122.392 49.4715 120.308 49.0641C118.223 48.6567 116.063 48.8663 114.1 49.6664C112.136 50.4665 110.458 51.8213 109.277 53.5593C108.097 55.2973 107.467 57.3405 107.467 59.4307C107.467 60.8191 107.745 62.1939 108.285 63.4766C108.826 64.7593 109.618 65.9246 110.616 66.9062C111.615 67.8877 112.8 68.6661 114.104 69.197C115.409 69.7278 116.807 70.0007 118.219 70V70Z"
        fill="#4653FC" />
    <path
        d="M22.5336 42.2772L28.3716 19.2179L30.3648 9.22165H30.4907L32.4839 19.2179L38.3901 42.2772H48.3403L60.6667 0H51.6133L43.3311 34.9083L34.7289 0H26.2578L17.7814 34.9083L9.43622 0H0L12.3264 42.2772H22.5336Z"
        fill="#ffffff" />
    <path
        d="M71.8229 42.2772V25.7456C71.7606 24.0849 72.1569 22.4392 72.9681 20.9895C73.6671 19.7976 74.6837 18.8242 75.9039 18.1787C77.0412 17.5755 78.3078 17.2586 79.5946 17.2556C80.3929 17.2455 81.191 17.2873 81.9839 17.3808C82.5178 17.4475 83.042 17.577 83.5456 17.7667L84.5867 10.4239C84.1254 10.1792 83.6308 10.0035 83.1187 9.90243C82.4699 9.7673 81.8085 9.7026 81.1458 9.70946C78.956 9.63111 76.7996 10.2641 74.9982 11.5139C73.2816 12.8114 71.9852 14.5873 71.2711 16.6194L70.6985 10.3613H63.0933V42.2772H71.8229Z"
        fill="#ffffff" />
    <path
        d="M105.853 30.5627C105.88 31.5739 105.685 32.5788 105.28 33.5054C104.927 34.2752 104.376 34.9372 103.684 35.4237C102.986 35.9078 102.207 36.2619 101.384 36.469C100.531 36.6825 99.6553 36.7896 98.7764 36.7879C97.767 36.817 96.7742 36.5261 95.9394 35.9568C95.5523 35.6858 95.2405 35.3204 95.0334 34.8952C94.8263 34.47 94.7307 33.9988 94.7555 33.5263C94.717 33.0636 94.7997 32.5989 94.9954 32.1781C95.1912 31.7573 95.4932 31.395 95.8716 31.1272C96.8871 30.5337 98.0023 30.1316 99.1623 29.9407L106.818 28.4092L106.886 22.968L94.8911 25.3985C92.0367 25.9525 89.8447 26.9875 88.3149 28.5033C87.5499 29.2674 86.9511 30.1821 86.5562 31.1896C86.1613 32.1971 85.9788 33.2757 86.0203 34.3574C85.9671 36.0175 86.4102 37.6557 87.2927 39.0616C88.1888 40.3789 89.4613 41.3938 90.9433 41.973C92.731 42.675 94.6405 43.0126 96.56 42.9661C98.2906 42.9684 100.008 42.6659 101.634 42.0723C103.196 41.5122 104.62 40.6208 105.806 39.4588C106.938 38.3511 107.671 36.8991 107.892 35.3296L106.364 35.5909V35.8418C106.312 37.2252 106.666 38.5935 107.381 39.7777C108.062 40.8225 109.042 41.6369 110.192 42.1141C111.466 42.643 112.834 42.9045 114.213 42.8824C115.649 42.9307 117.077 42.6463 118.385 42.0514L118.907 36.6102C118.249 36.8285 117.56 36.9379 116.868 36.9342C115.334 36.9342 114.568 36.1223 114.568 34.4985V21.541C114.568 18.8962 113.984 16.6992 112.815 14.9499C111.615 13.1802 109.913 11.8112 107.929 11.0193C105.594 10.0995 103.1 9.65352 100.591 9.70732C96.4609 9.70732 93.1736 10.5593 90.7295 12.2633C88.3603 13.8609 86.6658 16.2817 85.9733 19.0582L93.4413 21.3581C93.9941 19.4834 94.8633 18.1401 96.0489 17.3281C97.2747 16.5087 98.7217 16.0854 100.195 16.1155C100.949 16.0819 101.702 16.2002 102.41 16.4632C103.117 16.7262 103.765 17.1288 104.315 17.647C105.358 18.6924 105.879 20.1036 105.879 21.933V30.5731L105.853 30.5627Z"
        fill="#ffffff" />
    <path
        d="M156.262 34.8174L149.089 10.396H140.378L133.273 34.8174L126.869 10.396H117.52L127.764 42.2772H137.882L144.605 20.5959L151.584 42.2772H161.703L171.947 10.396H162.597L156.262 34.8174Z"
        fill="#ffffff" />
</svg>