<svg width="300" height="84" viewBox="0 0 300 84" fill="none" xmlns="http://www.w3.org/2000/svg">
<path d="M299.795 51.5396C299.54 51.2847 299.072 51.1565 298.393 51.1565H293.699C293.318 51.1565 293.029 51.2348 292.84 51.3897C292.648 51.5463 292.46 51.8494 292.277 52.3024L287.073 66.4053C286.818 65.7124 286.504 64.9646 286.129 64.165C285.754 63.3655 285.386 62.601 285.024 61.8715C284.663 61.1419 284.342 60.4907 284.058 59.9177C283.775 59.3447 283.584 58.9366 283.485 58.6968L285.822 52.9837C285.921 52.7422 285.992 52.5123 286.034 52.2925C286.077 52.0726 286.062 51.8777 285.992 51.7078C285.921 51.5379 285.779 51.403 285.567 51.3047C285.354 51.2065 285.043 51.1565 284.633 51.1565H279.6C279.175 51.1565 278.845 51.2348 278.612 51.3897C278.379 51.5463 278.169 51.8494 277.986 52.3024L273.483 66.5103C273.385 66.2554 273.232 65.8307 273.027 65.236C272.822 64.6414 272.587 63.9435 272.326 63.144C272.064 62.3445 271.776 61.4701 271.466 60.5207C271.155 59.5729 270.84 58.6168 270.52 57.6541C270.202 56.6914 269.897 55.747 269.607 54.8192C269.318 53.8915 269.051 53.0536 268.811 52.3024C268.698 51.9343 268.503 51.6512 268.227 51.453C267.95 51.2548 267.629 51.1565 267.261 51.1565H261.824C261.158 51.1565 260.736 51.3614 260.56 51.7728C260.383 52.1842 260.436 52.6789 260.72 53.2602L270.51 77.2169C270.623 77.5001 270.797 77.7233 271.03 77.8865C271.263 78.0497 271.663 78.1313 272.231 78.1313H274.758C275.182 78.1313 275.5 78.0431 275.714 77.8665C275.927 77.6899 276.11 77.4734 276.265 77.2186L280.151 67.5346L284.102 77.1769C284.258 77.4601 284.463 77.6899 284.718 77.8665C284.973 78.0431 285.376 78.1313 285.929 78.1313H288.159C288.654 78.1313 289.034 78.0431 289.295 77.8665C289.557 77.6899 289.752 77.4734 289.88 77.2186L299.84 52.9854C300.067 52.2775 300.053 51.7961 299.799 51.5413L299.795 51.5396Z" fill="#0FA3C5"/>
<path d="M258.497 54.7576C257.244 53.505 255.772 52.5206 254.08 51.8061C252.387 51.0915 250.579 50.7334 248.653 50.7334C247.351 50.7334 246.101 50.8966 244.904 51.2214C243.708 51.5479 242.592 52.0076 241.559 52.6022C240.525 53.1969 239.587 53.9164 238.744 54.7576C237.901 55.6004 237.18 56.5348 236.577 57.5608C235.976 58.5868 235.508 59.7028 235.176 60.9054C234.843 62.1096 234.677 63.3622 234.677 64.6647C234.677 65.9672 234.843 67.2165 235.176 68.4124C235.51 69.6083 235.976 70.7243 236.577 71.757C237.179 72.7913 237.901 73.7291 238.744 74.5719C239.587 75.4147 240.525 76.1359 241.559 76.7372C242.592 77.3385 243.708 77.8032 244.904 78.128C246.1 78.4528 247.349 78.616 248.653 78.616C249.957 78.616 251.176 78.4528 252.359 78.128C253.542 77.8032 254.649 77.3385 255.684 76.7372C256.716 76.1359 257.656 75.413 258.499 74.5719C259.341 73.7291 260.063 72.7913 260.664 71.757C261.265 70.7226 261.733 69.6083 262.066 68.4124C262.399 67.2165 262.566 65.9672 262.566 64.6647C262.566 62.6976 262.201 60.8671 261.472 59.1748C260.742 57.4825 259.751 56.0101 258.499 54.7576H258.497ZM254.165 67.2881C253.888 68.1026 253.492 68.8071 252.975 69.4018C252.459 69.9964 251.828 70.4678 251.085 70.8142C250.342 71.1607 249.509 71.3339 248.59 71.3339C247.67 71.3339 246.788 71.1607 246.03 70.8142C245.272 70.4678 244.627 69.9964 244.098 69.4018C243.566 68.8071 243.156 68.1026 242.865 67.2881C242.575 66.4736 242.43 65.5991 242.43 64.6647C242.43 63.7303 242.575 62.8942 242.865 62.073C243.155 61.2518 243.566 60.5306 244.098 59.9077C244.629 59.2847 245.272 58.7934 246.03 58.4319C246.788 58.0705 247.64 57.8906 248.59 57.8906C249.539 57.8906 250.342 58.0705 251.085 58.4319C251.828 58.7934 252.457 59.2847 252.975 59.9077C253.492 60.5306 253.888 61.2535 254.165 62.073C254.441 62.8942 254.579 63.7586 254.579 64.6647C254.579 65.5708 254.441 66.4736 254.165 67.2881Z" fill="#0FA3C5"/>
<path d="M230.801 54.2277C229.874 53.1551 228.753 52.3072 227.435 51.686C226.118 51.0647 224.654 50.7549 223.04 50.7549C221.907 50.7549 220.913 50.9214 220.055 51.2529C219.199 51.5844 218.459 51.9941 217.836 52.4805C217.213 52.9685 216.7 53.4898 216.297 54.0478C215.894 54.6058 215.586 55.1038 215.373 55.5402L214.715 52.8286C214.643 52.6171 214.57 52.4122 214.492 52.2156C214.413 52.0174 214.312 51.8409 214.183 51.686C214.055 51.5311 213.9 51.4061 213.715 51.3145C213.531 51.2229 213.312 51.1763 213.057 51.1763H209.849C209.665 51.1763 209.47 51.1979 209.265 51.2396C209.06 51.2812 208.865 51.3812 208.68 51.5361L208.808 51.4728C208.595 51.5994 208.429 51.7759 208.309 52.0024C208.189 52.229 208.129 52.4755 208.129 52.7436V76.4938C208.129 76.9902 208.264 77.3866 208.532 77.6831C208.8 77.9796 209.24 78.1295 209.849 78.1295H214.65C214.863 78.1295 215.05 78.1078 215.213 78.0662C215.376 78.0245 215.549 77.9463 215.732 77.833C215.916 77.7047 216.054 77.5215 216.147 77.2817C216.239 77.0402 216.285 76.8003 216.285 76.5588V62.7541C216.329 62.1178 216.502 61.5265 216.805 60.9802C217.11 60.4355 217.485 59.9608 217.931 59.5577C218.378 59.1546 218.866 58.8398 219.397 58.6117C219.928 58.3851 220.448 58.2719 220.958 58.2719C221.552 58.2719 222.137 58.3918 222.71 58.6333C223.283 58.8748 223.796 59.2029 224.249 59.621C224.702 60.0391 225.067 60.5205 225.343 61.0651C225.62 61.6098 225.758 62.1878 225.758 62.7957V76.6221C225.758 77.2167 225.871 77.6165 226.098 77.8213C226.324 78.0262 226.742 78.1295 227.35 78.1295H232.256C232.765 78.1295 233.137 77.9912 233.37 77.7147C233.603 77.4382 233.72 77.0318 233.72 76.4938V62.5825C233.72 60.9552 233.465 59.4228 232.955 57.987C232.445 56.5529 231.726 55.2987 230.8 54.2244L230.801 54.2277Z" fill="#0FA3C5"/>
<path d="M204.754 57.1577C204.172 56.2166 203.479 55.3489 202.672 54.556C201.864 53.7632 200.976 53.0836 200.007 52.5173C199.037 51.951 198 51.5112 196.895 51.1998C195.791 50.8883 194.652 50.7334 193.476 50.7334C192.186 50.7334 190.962 50.9033 189.801 51.2431C188.64 51.5829 187.564 52.0576 186.573 52.6655C185.582 53.2751 184.686 54.0064 183.887 54.8642C183.087 55.7203 182.408 56.658 181.848 57.6791C181.288 58.6984 180.857 59.7927 180.552 60.9604C180.247 62.128 180.096 63.3355 180.096 64.5814C180.096 66.5785 180.477 68.4257 181.242 70.1246C182.006 71.8236 183.041 73.2993 184.343 74.5535C185.646 75.8061 187.16 76.7872 188.889 77.495C190.616 78.2029 192.45 78.5577 194.39 78.5577C196.132 78.5577 197.781 78.2346 199.339 77.5917C200.896 76.9471 202.297 76.0526 203.544 74.905C203.758 74.7501 203.941 74.5685 204.097 74.3637C204.252 74.1588 204.331 73.9139 204.331 73.6308C204.331 73.4759 204.309 73.3226 204.267 73.1744C204.226 73.0262 204.126 72.8596 203.971 72.6747L201.719 70.1263C201.477 69.8848 201.263 69.7016 201.071 69.575C200.879 69.4467 200.691 69.3834 200.508 69.3834C200.325 69.3834 200.15 69.4301 199.988 69.5217C199.827 69.6133 199.63 69.7515 199.404 69.9364C199.149 70.1913 198.812 70.4361 198.394 70.6693C197.976 70.9025 197.517 71.109 197.013 71.2856C196.51 71.4621 195.991 71.6037 195.453 71.7103C194.915 71.8169 194.39 71.8702 193.88 71.8702C193.314 71.8702 192.713 71.7919 192.075 71.637C191.439 71.4821 190.836 71.2223 190.269 70.8625C189.703 70.5011 189.203 70.0164 188.772 69.4084C188.341 68.8005 188.052 68.0426 187.913 67.1365H203.205C204.097 67.1365 204.772 67.0832 205.233 66.9783C205.693 66.8717 206.023 66.6801 206.221 66.4053C206.419 66.1288 206.529 65.7574 206.551 65.291C206.573 64.8229 206.583 64.2217 206.583 63.4854C206.583 62.3528 206.423 61.2518 206.104 60.1825C205.786 59.1132 205.337 58.1088 204.755 57.1661L204.754 57.1577ZM188.167 61.0969C188.394 60.6156 188.687 60.1409 189.048 59.6745C189.41 59.2064 189.816 58.79 190.269 58.4219C190.722 58.0538 191.207 57.7607 191.725 57.5408C192.241 57.321 192.776 57.211 193.329 57.211C194.094 57.211 194.763 57.311 195.336 57.5075C195.909 57.7057 196.419 57.9822 196.865 58.3353C197.312 58.6884 197.708 59.0998 198.055 59.5679C198.401 60.0343 198.724 60.5439 199.021 61.0969H188.167Z" fill="white" fill-opacity="0.9"/>
<path d="M176.433 54.2277C175.549 53.1551 174.473 52.3072 173.205 51.686C171.938 51.0647 170.497 50.7549 168.883 50.7549C167.864 50.7549 166.933 50.8931 166.09 51.168C165.247 51.4428 164.501 51.7926 163.85 52.2156C163.198 52.6387 162.639 53.1018 162.172 53.6031C161.704 54.1045 161.336 54.5742 161.068 55.0122C160.19 53.713 159.071 52.6787 157.712 51.9092C156.353 51.1396 154.767 50.7549 152.955 50.7549C151.822 50.7549 150.876 50.9214 150.12 51.2529C149.362 51.5844 148.732 51.9941 148.229 52.4805C147.726 52.9685 147.323 53.4898 147.018 54.0478C146.714 54.6058 146.455 55.1038 146.244 55.5402L145.586 52.8286C145.514 52.6171 145.441 52.4122 145.363 52.2156C145.284 52.0174 145.183 51.8409 145.055 51.686C144.926 51.5311 144.771 51.4061 144.587 51.3145C144.402 51.2229 144.183 51.1763 143.929 51.1763H140.721C140.536 51.1763 140.341 51.1979 140.136 51.2396C139.931 51.2812 139.736 51.3812 139.551 51.5361L139.68 51.4728C139.466 51.5994 139.3 51.7759 139.18 52.0024C139.06 52.229 139 52.4755 139 52.7436V76.4938C139 76.9902 139.135 77.3866 139.403 77.6831C139.671 77.9796 140.111 78.1295 140.721 78.1295H145.521C145.734 78.1295 145.921 78.1078 146.084 78.0662C146.247 78.0245 146.42 77.9463 146.604 77.833C146.787 77.7047 146.925 77.5215 147.018 77.2817C147.11 77.0402 147.157 76.8003 147.157 76.5588V62.5409C147.2 61.9046 147.351 61.3233 147.613 60.7986C147.874 60.2756 148.201 59.8259 148.591 59.4495C148.98 59.0747 149.418 58.7849 149.908 58.5783C150.396 58.3735 150.896 58.2702 151.406 58.2702C152 58.2702 152.535 58.3801 153.01 58.6C153.484 58.8199 153.887 59.1247 154.221 59.5128C154.554 59.9025 154.808 60.3589 154.985 60.8819C155.162 61.4066 155.25 61.9729 155.25 62.5808V76.6187C155.25 77.2134 155.363 77.6131 155.59 77.818C155.816 78.0229 156.234 78.1261 156.842 78.1261H161.747C162.257 78.1261 162.629 77.9879 162.862 77.7114C163.095 77.4349 163.212 77.0285 163.212 76.4905V62.5792C163.212 61.9412 163.321 61.3583 163.541 60.8269C163.761 60.2956 164.054 59.8425 164.422 59.4678C164.791 59.093 165.215 58.7999 165.697 58.5867C166.178 58.3735 166.688 58.2685 167.226 58.2685C167.82 58.2685 168.362 58.3785 168.85 58.5983C169.338 58.8182 169.752 59.123 170.092 59.5111C170.432 59.9008 170.697 60.3572 170.888 60.8802C171.08 61.4049 171.175 61.9712 171.175 62.5792V76.6171C171.175 77.2117 171.288 77.6115 171.515 77.8163C171.741 78.0212 172.159 78.1245 172.767 78.1245H177.673C178.182 78.1245 178.554 77.9862 178.787 77.7097C179.02 77.4332 179.137 77.0268 179.137 76.4888V62.5775C179.137 60.9502 178.907 59.4178 178.445 57.982C177.986 56.5479 177.313 55.2937 176.428 54.2194L176.433 54.2277Z" fill="white" fill-opacity="0.9"/>
<path d="M129.604 49.3358V43.9608C129.604 42.8915 130.779 42.2385 131.688 42.8032L136.012 45.4898C136.87 46.0228 136.87 47.2721 136.012 47.8067L131.688 50.4934C130.78 51.058 129.604 50.4051 129.604 49.3358Z" fill="#60CBAC"/>
<path d="M136.592 52.2574C136.422 52.1092 136.237 51.9959 136.041 51.9176C135.843 51.8393 135.658 51.801 135.488 51.801H130.624C130.086 51.801 129.69 51.9643 129.435 52.2891C129.18 52.6155 129.052 53.0036 129.052 53.4567V76.494C129.052 77.5849 129.576 78.1296 130.624 78.1296H135.488C136.041 78.1296 136.465 77.9914 136.762 77.7149C137.06 77.4384 137.208 77.032 137.208 76.494V53.4567C137.208 53.2018 137.148 52.9753 137.028 52.7771C136.909 52.5789 136.764 52.4056 136.594 52.2574H136.592Z" fill="white" fill-opacity="0.9"/>
<path d="M127.237 52.304C126.954 52.0359 126.586 51.9009 126.133 51.9009H122.587L122.609 44.2457C122.609 43.751 122.52 43.3496 122.344 43.0465C122.167 42.7417 121.816 42.5901 121.293 42.5901H121.113C121.05 42.5901 120.981 42.5968 120.911 42.6117L116.089 44.289C115.551 44.4872 115.137 44.6971 114.847 44.9153C114.557 45.1352 114.412 45.465 114.412 45.903L114.39 51.891L114.379 51.9026H112.84C111.749 51.9026 111.204 52.4406 111.204 53.5166V57.6157C111.204 58.7633 111.749 59.3363 112.84 59.3363H114.342V66.3036C114.342 66.7384 114.362 67.1664 114.4 67.5862C114.504 68.7421 114.749 69.8464 115.135 70.8974C115.663 72.3315 116.409 73.5858 117.37 74.6601C118.331 75.7327 119.494 76.5806 120.86 77.2018C121.259 77.3834 121.674 77.535 122.101 77.6649C123.13 77.9747 124.234 78.1346 125.417 78.1346C125.6 78.1346 125.78 78.1296 125.955 78.1213C126.906 78.0746 127.646 77.2785 127.636 76.3257L127.591 72.105C127.582 71.2839 127.008 70.586 126.208 70.3911C126.042 70.3511 125.885 70.3045 125.758 70.2528C125.164 70.0113 124.632 69.6832 124.163 69.2651C123.693 68.847 123.315 68.3657 123.028 67.821C122.742 67.2764 122.599 66.6984 122.599 66.0904V59.3363H126.136C126.59 59.3363 126.958 59.1981 127.241 58.9232C127.491 58.6801 127.622 58.3053 127.652 57.8156C127.656 57.749 127.665 57.6873 127.665 57.6174V53.5183C127.665 52.9803 127.524 52.5772 127.241 52.3074L127.237 52.304Z" fill="white" fill-opacity="0.9"/>
<path d="M257.628 37.7164L254.293 45.6281C254.265 45.6548 254.227 45.7114 254.177 45.803C254.127 45.893 254.102 46.0229 254.102 46.1911C254.102 46.6308 254.218 46.964 254.452 47.1905C254.685 47.417 255.121 47.5303 255.757 47.5303H260.663C261.031 47.5303 261.342 47.4237 261.597 47.2105C261.852 46.9973 262.029 46.7158 262.129 46.3677L262.065 46.4643C262.263 45.9729 262.553 45.275 262.936 44.3706C263.318 43.4661 263.767 42.4151 264.285 41.2192C264.802 40.0233 265.371 38.7108 265.996 37.2817C266.619 35.8526 267.267 34.3635 267.94 32.8111C268.613 31.2604 269.302 29.6797 270.01 28.0691C270.718 26.4601 271.416 24.8761 272.102 23.317C272.789 21.7597 273.451 20.2589 274.088 18.8182C274.726 17.3774 275.312 16.0482 275.85 14.8323C275.935 14.6391 275.992 14.4409 276.02 14.241C276.048 14.0412 276.017 13.8596 275.925 13.698C275.833 13.5365 275.673 13.4066 275.447 13.3099C275.22 13.2133 274.909 13.165 274.512 13.165H269.054C268.629 13.165 268.296 13.2367 268.056 13.3782C267.815 13.5198 267.617 13.798 267.462 14.2127L261.579 29.8246L255.569 14.2127C255.456 13.9162 255.286 13.6664 255.06 13.4665C254.833 13.2666 254.543 13.1667 254.188 13.1667H248.943C248.192 13.1667 247.707 13.3516 247.488 13.7197C247.268 14.0878 247.271 14.5309 247.498 15.0472L257.628 37.7181V37.7164Z" fill="#0FA3C5"/>
<path d="M237.901 20.6306C238.389 20.8504 238.803 21.1553 239.143 21.5433C239.483 21.9331 239.748 22.3895 239.939 22.9125C240.131 23.4372 240.226 24.0035 240.226 24.6114V38.6493C240.226 39.244 240.339 39.6437 240.566 39.8486C240.792 40.0535 241.21 40.1567 241.818 40.1567H246.723C247.233 40.1567 247.605 40.0185 247.838 39.742C248.071 39.4655 248.188 39.0591 248.188 38.5211V24.6098C248.188 22.9824 247.958 21.4501 247.496 20.0143C247.037 18.5802 246.364 17.326 245.479 16.2516C244.595 15.179 243.519 14.3312 242.251 13.7099C240.984 13.0886 239.543 12.7788 237.929 12.7788C236.91 12.7788 235.978 12.9171 235.136 13.1919C234.293 13.4667 233.547 13.8165 232.895 14.2396C232.244 14.6626 231.684 15.1257 231.218 15.627C230.75 16.1284 230.382 16.5981 230.114 17.0362C229.236 15.737 228.117 14.7026 226.758 13.9331C225.398 13.1636 223.813 12.7788 222.001 12.7788C220.868 12.7788 219.922 12.9454 219.166 13.2768C218.408 13.6083 217.778 14.018 217.275 14.5044C216.772 14.9924 216.369 15.5138 216.064 16.0718C215.759 16.6297 215.501 17.1278 215.29 17.5642L214.632 14.8525C214.56 14.641 214.487 14.4361 214.409 14.2396C214.33 14.0414 214.229 13.8648 214.1 13.7099C213.972 13.555 213.817 13.4301 213.632 13.3385C213.448 13.2469 213.229 13.2002 212.974 13.2002H209.766C209.582 13.2002 209.387 13.2219 209.182 13.2635C208.977 13.3051 208.782 13.4051 208.597 13.56L208.725 13.4967C208.512 13.6233 208.346 13.7998 208.226 14.0264C208.106 14.2529 208.046 14.4994 208.046 14.7676V38.5178C208.046 39.0141 208.181 39.4105 208.449 39.707C208.717 40.0035 209.157 40.1534 209.766 40.1534H214.567C214.78 40.1534 214.967 40.1318 215.13 40.0901C215.293 40.0485 215.466 39.9702 215.649 39.8569C215.833 39.7287 215.971 39.5454 216.064 39.3056C216.156 39.0641 216.202 38.8242 216.202 38.5827V24.5648C216.246 23.9285 216.397 23.3472 216.659 22.8225C216.92 22.2995 217.247 21.8498 217.637 21.4734C218.026 21.0986 218.464 20.8088 218.954 20.6023C219.442 20.3974 219.942 20.2941 220.451 20.2941C221.046 20.2941 221.581 20.4041 222.055 20.6239C222.53 20.8438 222.933 21.1486 223.266 21.5367C223.6 21.9264 223.854 22.3828 224.031 22.9058C224.207 23.4305 224.296 23.9968 224.296 24.6048V38.6427C224.296 39.2373 224.409 39.6371 224.636 39.8419C224.862 40.0468 225.28 40.1501 225.888 40.1501H230.793C231.303 40.1501 231.675 40.0118 231.908 39.7353C232.141 39.4588 232.257 39.0524 232.257 38.5144V24.6031C232.257 23.9652 232.367 23.3822 232.587 22.8509C232.807 22.3195 233.1 21.8665 233.468 21.4917C233.836 21.1169 234.261 20.8238 234.743 20.6106C235.224 20.3974 235.734 20.2925 236.272 20.2925C236.866 20.2925 237.408 20.4024 237.896 20.6223L237.901 20.6306Z" fill="#0FA3C5"/>
<path d="M206.531 38.2262H206.573L195.593 24.1233L204.323 14.9057C204.478 14.7225 204.581 14.5809 204.631 14.481C204.681 14.3827 204.706 14.2545 204.706 14.0979C204.706 13.49 204.316 13.1851 203.538 13.1851H197.019C196.509 13.1851 196.07 13.39 195.701 13.8014L188.056 22.2961V6.58093C188.056 6.43935 188.038 6.28778 188.003 6.12454C187.968 5.96131 187.896 5.80974 187.79 5.66816C187.683 5.52658 187.542 5.40999 187.365 5.31671C187.188 5.2251 186.965 5.17847 186.695 5.17847H181.62C181.209 5.17847 180.891 5.21844 180.664 5.29506C180.438 5.37335 180.271 5.48328 180.164 5.62486C180.058 5.76643 179.998 5.93633 179.985 6.13454C179.97 6.33275 179.963 6.55261 179.963 6.79246V38.7559C179.963 38.7842 179.988 38.8725 180.038 39.0207C180.088 39.1689 180.164 39.3288 180.271 39.4987C180.378 39.6686 180.523 39.8202 180.706 39.9551C180.889 40.09 181.109 40.1567 181.364 40.1567H186.694C186.99 40.1567 187.232 40.0934 187.417 39.9651C187.6 39.8369 187.746 39.6853 187.851 39.5087C187.958 39.3322 188.028 39.1506 188.063 38.9674C188.098 38.7842 188.116 38.6343 188.116 38.521V31.6603L190.473 29.2185L197.419 39.0523C197.674 39.4204 197.907 39.6969 198.12 39.8802C198.333 40.065 198.558 40.1567 198.799 40.1567H205.978C206.331 40.1567 206.598 40.0967 206.775 39.9768C206.951 39.8568 207.039 39.6336 207.039 39.3072C207.039 39.1506 206.999 38.9774 206.923 38.7875C206.844 38.596 206.715 38.4094 206.53 38.2245L206.531 38.2262Z" fill="white" fill-opacity="0.9"/>
<path d="M178.518 35.911L176.14 32.3216C175.927 31.9968 175.722 31.7836 175.524 31.6837C175.325 31.5854 175.106 31.5354 174.866 31.5354C174.766 31.5354 174.629 31.5537 174.451 31.5887C174.274 31.6237 174.086 31.7136 173.888 31.8535C173.25 32.2933 172.579 32.6531 171.871 32.9362C171.163 33.2194 170.405 33.3609 169.599 33.3609C168.706 33.3609 167.885 33.1877 167.135 32.8413C166.384 32.4948 165.745 32.0234 165.213 31.4288C164.682 30.8342 164.267 30.1296 163.971 29.3151C163.674 28.5006 163.524 27.6262 163.524 26.6918C163.524 25.7573 163.673 24.9212 163.971 24.1001C164.267 23.2789 164.682 22.5577 165.213 21.9347C165.745 21.3118 166.384 20.8204 167.135 20.459C167.887 20.0975 168.708 19.9177 169.599 19.9177C170.405 19.9177 171.166 20.0492 171.883 20.3107C172.597 20.5723 173.267 20.9087 173.89 21.3201C174.116 21.4767 174.321 21.585 174.506 21.6499C174.689 21.7132 174.846 21.7449 174.974 21.7449C175.54 21.7449 176.022 21.3984 176.418 20.7038L178.309 17.4975C178.478 17.2293 178.563 16.9662 178.563 16.7113C178.563 16.3432 178.472 16.0351 178.287 15.7869C178.102 15.5404 177.855 15.3239 177.544 15.139L177.607 15.2023C176.461 14.3961 175.232 13.7865 173.923 13.3751C172.614 12.9637 171.186 12.7588 169.644 12.7588C168.37 12.7588 167.14 12.922 165.96 13.2468C164.777 13.5733 163.676 14.033 162.657 14.6276C161.637 15.2223 160.703 15.9418 159.853 16.7829C159.004 17.6258 158.281 18.5602 157.686 19.5862C157.092 20.6122 156.629 21.7282 156.296 22.9308C155.962 24.135 155.796 25.3876 155.796 26.6901C155.796 27.9926 155.962 29.2418 156.296 30.4378C156.629 31.6337 157.092 32.7497 157.686 33.7823C158.281 34.8167 159.004 35.7544 159.853 36.5973C160.703 37.4401 161.637 38.1613 162.657 38.7626C163.676 39.3639 164.777 39.8286 165.96 40.1534C167.142 40.4782 168.37 40.6414 169.644 40.6414C171.186 40.6414 172.649 40.3966 174.03 39.9085C175.41 39.4205 176.681 38.7726 177.842 37.9647C178.084 37.8098 178.305 37.6283 178.512 37.4234C178.717 37.2185 178.82 36.9537 178.82 36.6272C178.82 36.5423 178.788 36.429 178.725 36.2875C178.662 36.1459 178.593 36.0193 178.523 35.9044L178.518 35.911Z" fill="white" fill-opacity="0.9"/>
<path d="M132.676 38.7674C133.702 39.3687 134.807 39.8334 135.989 40.1582C137.172 40.483 138.406 40.6462 139.695 40.6462C140.418 40.6462 141.096 40.5213 141.734 40.2748C142.37 40.0266 142.961 39.7185 143.508 39.3504C144.052 38.9823 144.552 38.5825 145.005 38.1495C145.458 37.7181 145.876 37.31 146.258 36.9286L146.874 38.5209C146.959 38.7624 147.041 38.9839 147.119 39.1905C147.197 39.3953 147.292 39.5702 147.405 39.7102C147.519 39.8517 147.667 39.9617 147.852 40.0399C148.035 40.1182 148.276 40.1565 148.575 40.1565H152.759C152.914 40.1565 153.098 40.1349 153.31 40.0932C153.522 40.0516 153.706 39.9517 153.861 39.7968C154.06 39.6702 154.201 39.4953 154.286 39.2771C154.371 39.0572 154.413 38.8274 154.413 38.5875V14.6508C154.413 14.3959 154.371 14.1694 154.286 13.9712C154.201 13.773 154.06 13.5964 153.861 13.4399C153.705 13.285 153.522 13.185 153.31 13.1434C153.097 13.1018 152.914 13.0801 152.759 13.0801H149.594C149.311 13.0801 149.091 13.0984 148.936 13.1334C148.78 13.1684 148.65 13.24 148.543 13.3466C148.436 13.4532 148.338 13.6164 148.247 13.8346C148.155 14.0545 148.038 14.341 147.897 14.6941L147.069 17.2642C146.687 16.7128 146.251 16.1665 145.763 15.6285C145.275 15.0905 144.729 14.6091 144.127 14.1844C143.526 13.7597 142.857 13.4166 142.12 13.1551C141.384 12.8935 140.576 12.762 139.7 12.762C137.775 12.762 135.969 13.1201 134.285 13.8346C132.6 14.5492 131.134 15.5336 129.89 16.7861C128.644 18.0387 127.659 19.5111 126.938 21.2034C126.215 22.8956 125.855 24.7262 125.855 26.6933C125.855 27.9958 126.019 29.245 126.344 30.4409C126.668 31.6369 127.133 32.7528 127.734 33.7855C128.336 34.8199 129.055 35.7576 129.89 36.6004C130.724 37.4432 131.655 38.1644 132.683 38.7657L132.676 38.7674ZM133.929 24.1016C134.219 23.2804 134.633 22.5592 135.171 21.9362C135.709 21.3133 136.357 20.8219 137.115 20.4605C137.873 20.0991 138.711 19.9192 139.632 19.9192C140.553 19.9192 141.462 20.0991 142.275 20.4605C143.09 20.8219 143.798 21.3133 144.399 21.9362C145 22.5592 145.472 23.2821 145.811 24.1016C146.151 24.9227 146.321 25.7872 146.321 26.6933C146.321 27.5994 146.151 28.5021 145.811 29.3166C145.472 30.1311 145 30.8357 144.399 31.4303C143.798 32.0249 143.088 32.4963 142.275 32.8428C141.461 33.1892 140.58 33.3624 139.632 33.3624C138.684 33.3624 137.873 33.1892 137.115 32.8428C136.357 32.4963 135.709 32.0249 135.171 31.4303C134.633 30.8357 134.219 30.1311 133.929 29.3166C133.639 28.5021 133.494 27.6277 133.494 26.6933C133.494 25.7589 133.639 24.9227 133.929 24.1016Z" fill="white" fill-opacity="0.9"/>
<path d="M114.9 39.7437C115.162 39.4672 115.293 39.0608 115.293 38.5228C115.293 35.6879 115.232 32.8446 115.295 30.0114C115.345 27.8378 114.962 25.5892 115.536 23.4555C115.921 22.0264 116.85 20.6839 118.276 20.1526C118.694 19.9977 119.179 19.9194 119.732 19.9194C120.538 19.9194 121.258 20.0643 121.887 20.3541C122.517 20.6439 123.137 21.087 123.746 21.6816C124.228 21.9081 124.674 21.9714 125.084 21.8731C125.493 21.7749 125.842 21.5117 126.125 21.087L128.057 17.7957C128.665 16.763 128.482 15.9835 127.506 15.4588C126.883 15.0058 126.305 14.6093 125.775 14.2696C125.244 13.9298 124.709 13.6499 124.171 13.4301C123.633 13.2102 123.063 13.0437 122.46 12.9304C121.859 12.8171 121.176 12.7605 120.412 12.7605C119.647 12.7605 119.039 12.9021 118.501 13.1852C117.963 13.4684 117.475 13.8298 117.035 14.2679C116.596 14.706 116.183 15.1857 115.793 15.702C115.403 16.2183 114.997 16.7114 114.572 17.1777C114.544 17.1078 114.484 16.9545 114.392 16.7214C114.3 16.4882 114.204 16.24 114.106 15.9785C114.006 15.717 113.914 15.4755 113.829 15.2556C113.744 15.0357 113.687 14.8975 113.659 14.8409C113.546 14.6427 113.451 14.4444 113.373 14.2462C113.294 14.048 113.203 13.8715 113.096 13.7149C112.99 13.56 112.86 13.4317 112.703 13.3318C112.547 13.2335 112.335 13.1836 112.065 13.1836H108.859C108.462 13.1836 108.079 13.3035 107.711 13.545C107.555 13.6733 107.425 13.8465 107.318 14.0647C107.212 14.2845 107.158 14.5144 107.158 14.7559V38.5211C107.158 39.6121 107.71 40.1567 108.816 40.1567H113.594C114.202 40.1567 114.639 40.0185 114.9 39.742V39.7437Z" fill="white" fill-opacity="0.9"/>
<path d="M105.263 14.1311C104.98 13.863 104.612 13.7281 104.159 13.7281H100.612L100.634 7.03723C100.634 6.54253 100.546 6.14112 100.369 5.83797C100.193 5.53316 99.8412 5.38159 99.3182 5.38159H99.1383C99.075 5.38159 99.0067 5.38825 98.9368 5.40324L94.1148 7.08053C93.5768 7.27874 93.162 7.48861 92.8722 7.70681C92.5824 7.92667 92.4375 8.25647 92.4375 8.69453L92.4158 13.7164L92.4042 13.7281H90.8651C89.7742 13.7281 89.2295 14.2661 89.2295 15.342V19.4412C89.2295 20.5888 89.7742 21.1618 90.8651 21.1618H92.3675V28.1291C92.3675 28.5638 92.3875 28.9919 92.4258 29.4116C92.5291 30.5676 92.7739 31.6719 93.1604 32.7229C93.6884 34.157 94.4346 35.4112 95.3956 36.4855C96.3567 37.5582 97.5193 38.406 98.8851 39.0273C99.2849 39.2088 99.6996 39.3604 100.126 39.4903C101.155 39.8001 102.26 39.96 103.442 39.96C103.626 39.96 103.805 39.955 103.98 39.9467C104.931 39.9001 105.671 39.1039 105.661 38.1512L105.616 33.9305C105.608 33.1093 105.033 32.4114 104.233 32.2165C104.067 32.1765 103.91 32.1299 103.784 32.0783C103.189 31.8368 102.658 31.5086 102.188 31.0906C101.718 30.6725 101.34 30.1911 101.054 29.6465C100.767 29.1018 100.624 28.5238 100.624 27.9159V21.1618H104.162C104.615 21.1618 104.983 21.0235 105.266 20.7487C105.516 20.5055 105.648 20.1307 105.678 19.641C105.681 19.5744 105.691 19.5128 105.691 19.4428V15.3437C105.691 14.8057 105.549 14.4026 105.266 14.1328L105.263 14.1311Z" fill="white" fill-opacity="0.9"/>
<path d="M41.8989 83.7977C65.039 83.7977 83.7978 65.039 83.7978 41.8989C83.7978 18.7588 65.039 0 41.8989 0C18.7588 0 0 18.7588 0 41.8989C0 65.039 18.7588 83.7977 41.8989 83.7977Z" fill="white" fill-opacity="0.9"/>
<path d="M41.8985 8.61636C46.3923 8.61636 50.7513 9.49581 54.8537 11.2314C58.8162 12.907 62.3757 15.3072 65.4338 18.3653C68.4919 21.4234 70.892 24.9828 72.5677 28.9453C74.3033 33.0478 75.1827 37.4051 75.1827 41.9006C75.1827 46.3961 74.3033 50.7534 72.5677 54.8559C70.892 58.8184 68.4919 62.3778 65.4338 65.4359C62.3757 68.494 58.8162 70.8942 54.8537 72.5698C50.7513 74.3054 46.394 75.1848 41.8985 75.1848C37.4029 75.1848 33.0456 74.3054 28.9432 72.5698C24.9807 70.8942 21.4212 68.494 18.3631 65.4359C15.305 62.3778 12.9049 58.8184 11.2292 54.8559C9.49366 50.7534 8.61421 46.3961 8.61421 41.9006C8.61421 37.4051 9.49366 33.0478 11.2292 28.9453C12.9049 24.9828 15.305 21.4234 18.3631 18.3653C21.4212 15.3072 24.9807 12.907 28.9432 11.2314C33.0456 9.49581 37.4029 8.61636 41.8985 8.61636ZM41.8985 6.55098C22.3756 6.55098 6.54883 22.3778 6.54883 41.9006C6.54883 61.4234 22.3756 77.2502 41.8985 77.2502C61.4213 77.2502 77.2481 61.4234 77.2481 41.9006C77.2481 22.3778 61.4213 6.54932 41.8985 6.54932V6.55098Z" fill="#0FA3C5"/>
<path d="M41.8983 76.214C60.8501 76.214 76.2135 60.8506 76.2135 41.8988C76.2135 22.947 60.8501 7.5835 41.8983 7.5835C22.9465 7.5835 7.58301 22.947 7.58301 41.8988C7.58301 60.8506 22.9465 76.214 41.8983 76.214Z" fill="#38386D"/>
<path d="M59.8915 19.1282H23.9072V21.5933C23.9355 22.9358 24.9616 23.9202 26.3457 23.9302C26.6472 23.9318 26.9503 23.9502 27.2485 23.9268C27.5883 23.9002 27.6499 24.0418 27.6016 24.3466C27.525 24.8296 27.4783 25.316 27.4267 25.8023C27.1819 28.1326 27.5799 30.3528 28.5843 32.4615C29.537 34.4619 31.0028 36.056 32.6851 37.4551C33.9193 38.4811 35.1685 39.4921 36.4577 40.4465C37.3372 41.0961 37.3788 42.4936 36.4894 43.0866C36.3228 43.1982 36.1729 43.3347 36.013 43.453C34.0925 44.8688 32.2237 46.3512 30.623 48.1318C28.5077 50.482 27.3851 53.2452 27.3817 56.4183C27.3817 57.4543 27.5333 58.4903 27.6432 59.523C27.6749 59.8245 27.6116 59.9427 27.3034 59.9327C26.927 59.9194 26.5506 59.9244 26.1741 59.9327C24.9432 59.9627 23.9522 61.0121 23.9156 62.2063H23.9072V64.6714H59.8915V62.2063H59.8781C59.8232 60.9154 58.8055 59.9444 57.4696 59.9361C57.1182 59.9344 56.7667 59.9311 56.4153 59.9361C56.1804 59.9377 56.1121 59.8395 56.1488 59.6079C56.2354 59.0633 56.3203 58.5169 56.3703 57.969C56.6035 55.4089 56.1971 52.9721 54.9812 50.6852C53.8985 48.6464 52.2745 47.0841 50.5373 45.63C49.5179 44.7772 48.4769 43.9444 47.3893 43.1832C46.4365 42.5153 46.4482 40.9612 47.3859 40.4416C47.5158 40.3699 47.6224 40.255 47.744 40.1667C49.408 38.9525 51.007 37.66 52.4744 36.2092C55.1328 33.5825 56.5302 30.4261 56.422 26.6601C56.4003 25.9223 56.312 25.1861 56.2287 24.4515C56.1738 23.9652 56.1754 23.9418 56.6768 23.9402C56.9533 23.9402 57.2281 23.9418 57.5046 23.9402C58.8921 23.9235 59.8731 22.8342 59.8881 21.6H59.8915V19.1348V19.1282ZM53.3489 31.199C52.6177 32.8546 51.4817 34.2021 50.1242 35.3581C48.7218 36.554 47.2993 37.7299 45.8269 38.8359C44.0647 40.1584 43.9497 43.3631 45.8769 44.7872C46.9362 45.57 47.9805 46.3745 48.9899 47.219C50.3174 48.3316 51.615 49.4809 52.5677 50.9567C53.5771 52.5223 54.1734 54.228 54.17 56.0935C54.1684 57.2161 54.0118 58.3404 53.9285 59.463C53.9019 59.8128 53.7436 59.9411 53.3722 59.9411C45.732 59.9311 38.09 59.9311 30.4498 59.9411C30.0984 59.9411 29.9435 59.8494 29.8785 59.483C29.4921 57.2627 29.4354 55.0658 30.2416 52.9154C30.8712 51.2348 31.8922 49.8107 33.2381 48.6448C34.7438 47.3406 36.3062 46.0997 37.8552 44.8455C39.306 43.6712 39.7957 41.7274 38.9645 40.0801C38.7297 39.6137 38.3516 39.184 37.9485 38.8459C36.7775 37.8632 35.535 36.9637 34.3657 35.9777C32.825 34.6768 31.4109 33.261 30.5431 31.3889C29.7219 29.6216 29.4904 27.7661 29.6553 25.8457C29.6953 25.3843 29.7669 24.9246 29.8302 24.4648C29.9052 23.9302 29.9085 23.9302 30.4648 23.9302C34.2791 23.9302 38.0934 23.9302 41.9077 23.9302C45.6836 23.9318 49.4613 23.9335 53.2373 23.9302C54.0218 23.9302 53.8935 23.9552 53.9901 24.5531C54.3566 26.8234 54.2966 29.0503 53.3489 31.1973V31.199Z" fill="white" fill-opacity="0.9"/>
<path d="M45.2746 55.6437C44.152 54.9092 43.4458 53.7582 43.0177 52.5357C42.1349 50.0189 42.2665 47.2106 42.3798 44.6173C42.4431 43.1932 42.5547 41.859 43.2459 40.5864C43.8788 39.4222 44.7683 38.4095 45.4295 37.2619C46.4322 35.5196 47.8613 33.3176 47.8613 31.2489C47.8613 28.0543 45.198 25.4642 41.9067 25.4492C38.6154 25.4625 35.9521 28.0543 35.9521 31.2489C35.9521 33.3176 37.3812 35.5213 38.3839 37.2619C39.0452 38.4111 39.9346 39.4222 40.5676 40.5864C41.2588 41.859 41.3721 43.1932 41.4337 44.6173C41.5469 47.2106 41.6802 50.0189 40.7957 52.5357C40.366 53.7582 39.6615 54.9092 38.5388 55.6437C37.6361 56.235 34.2432 56.3833 34.2432 57.6641C34.2432 58.4153 37.9009 59.0233 41.9067 59.0249C45.9142 59.0233 49.1572 58.4137 49.1572 57.6641C49.1572 56.3833 46.1774 56.235 45.2746 55.6437ZM39.4566 31.119C39.4566 29.8065 40.5542 28.7422 41.9084 28.7422C43.2625 28.7422 44.3602 29.8065 44.3602 31.119C44.3602 32.4315 43.2625 33.4959 41.9084 33.4959C40.5542 33.4959 39.4566 32.4315 39.4566 31.119Z" fill="#60CBAC"/>
</svg>
