<?xml version="1.0" encoding="UTF-8"?>
<!-- Generator: Adobe Illustrator 24.2.1, SVG Export Plug-In . SVG Version: 6.00 Build 0)  -->
<svg xmlns="http://www.w3.org/2000/svg" xmlns:xlink="http://www.w3.org/1999/xlink" version="1.1" id="Layer_1" x="0px" y="0px" viewBox="0 0 127.6 38" style="enable-background:new 0 0 127.6 38;" xml:space="preserve">
<style type="text/css">
	.st0{fill:#8F7237;}
</style>
<g>
	<path d="M36.1,21.8L36.1,21.8c-0.6,0.8-1,1.2-1.5,1.5c-0.4,0.3-0.9,0.5-1.5,0.5c-0.5,0-1-0.1-1.4-0.3c-0.4-0.2-0.8-0.5-1.1-0.8   c-0.5-0.6-0.8-1.7-0.8-3.3V6.9h5.8l-1.1-1.1h-4.7V0.9L28.9,0l-0.2,0.8c-0.3,0.8-0.5,1.5-0.8,2.1c-0.3,0.5-0.7,1.1-1.2,1.6   C25.8,5.3,25,5.9,24,6.2l0,0v0.6h2.3v13.1c0,1.3,0.1,2.2,0.2,2.7c0.1,0.5,0.4,0.9,0.8,1.3c0.8,0.7,2.1,1,3.8,1   c1.3,0,2.4-0.2,3.3-0.6c0.9-0.4,1.5-1.1,2-1.9l0,0L36.1,21.8z"></path>
	<path d="M106.7,13.6l-2.3-1.1c-1.1-0.5-1.9-1-2.4-1.6c-0.5-0.6-0.8-1.2-0.8-1.9c0-0.8,0.4-1.5,0.9-2.1c0.6-0.6,1.3-0.9,2.1-0.9   c0.6,0,1.2,0.2,1.7,0.5c0.6,0.3,1,0.7,1.5,1.2c0.3,0.4,0.6,0.8,0.8,1.2c0.2,0.4,0.4,1,0.5,1.7l0,0h0.5l-0.2-5l0,0h-0.5l0,0   c-0.2,0.4-0.5,0.6-0.7,0.6c-0.2,0-0.4,0-0.6-0.1l-0.7-0.3c-0.6-0.3-1.4-0.4-2.1-0.4c-1.7,0-3,0.6-4.1,1.6C99.4,8,99,9.2,99,10.5   c0,1.2,0.4,2.3,1.3,3.3c0.6,0.7,1.9,1.5,3.7,2.5c1,0.6,1.8,1,2.2,1.3c0.4,0.3,0.8,0.6,1.1,1c0.5,0.7,0.8,1.5,0.8,2.4   c0,1.1-0.4,1.9-1.1,2.5c-0.7,0.5-1.4,0.8-2.4,0.8c-1.5,0-2.8-0.8-3.9-2.5c-0.6-0.9-1.1-2-1.5-3.5l0,0h-0.4v6.3h0.4l0,0   c0.3-0.4,0.6-0.6,1.1-0.6c0.2,0,0.4,0,0.5,0.1c0.1,0,0.5,0.2,1.2,0.4c1,0.4,2,0.6,3,0.6c1.8,0,3.3-0.6,4.4-1.8c1-1,1.5-2.3,1.5-3.9   c0-1.3-0.3-2.4-1-3.3C109.2,15,108.1,14.2,106.7,13.6z"></path>
	<path d="M80.6,21.4c-1.1-1.8-1.7-3.9-1.7-6.4c0-2.5,0.6-4.6,1.8-6.3c0.8-1.2,1.8-2,2.9-2.4l0.1,0L83,5.6l0,0   c-2.1,0.4-4,1.5-5.6,3.2c-1.8,1.9-2.6,4-2.6,6.4c0,1.1,0.2,2.3,0.7,3.4c0.4,1.1,1.1,2.1,1.9,3c1.6,1.7,3.5,2.8,5.7,3.2l0,0l0.7-0.7   l-0.1,0C82.5,23.6,81.4,22.7,80.6,21.4z"></path>
	<path d="M87.2,5.6L87.2,5.6l-0.7,0.6l0.1,0c1,0.4,1.9,1.1,2.7,2.2c0.6,0.9,1.1,1.9,1.5,3.1c0.4,1.2,0.6,2.4,0.6,3.6   c0,1.1-0.2,2.3-0.5,3.6C90.5,20,90,21,89.4,21.8c-0.5,0.8-1.2,1.4-1.9,1.8c-0.3,0.2-0.6,0.3-0.9,0.4l-0.1,0l0.6,0.6l0,0l0,0   c2.2-0.4,4.1-1.5,5.7-3.2c1.7-1.8,2.5-3.9,2.5-6.3c0-2.4-0.9-4.5-2.6-6.4C91.2,7.1,89.3,6,87.2,5.6z"></path>
	<path d="M20.5,23.2c-0.3-0.2-0.6-0.5-0.9-0.9c-0.2-0.4-0.4-0.9-0.5-1.5c-0.1-0.6-0.1-1.7-0.1-3.2V5.7h-6l-0.6,0.6l0.1,0   c1.1,0.2,1.9,0.5,2.3,0.9c0.3,0.3,0.5,0.7,0.7,1.1c0.1,0.4,0.2,1.2,0.2,2.2l0,1.6v4.3c0,1.7-0.1,2.9-0.2,3.7   c-0.1,0.7-0.4,1.3-0.8,1.9c-0.4,0.5-1,1-1.7,1.3c-0.7,0.3-1.5,0.5-2.3,0.5c-0.7,0-1.4-0.1-2-0.4c-0.6-0.3-1-0.6-1.4-1.1   c-0.3-0.5-0.5-1.1-0.6-1.8c-0.1-0.8-0.2-1.9-0.2-3.5V5.7H0v0.6l0,0c1.1,0.2,1.8,0.5,2.3,0.9c0.3,0.3,0.5,0.7,0.6,1.1   c0.1,0.4,0.2,1.2,0.2,2.2l0,1.7v7.6c0,1.6,0.6,2.9,1.6,3.8c1.1,0.9,2.6,1.3,4.4,1.3c2.5,0,4.6-0.9,6.4-2.7c0,0.9,0.1,1.8,0.3,2.6   l0,0l6.1-0.8l0,0v-0.5l0,0C21.4,23.5,20.9,23.4,20.5,23.2z"></path>
	<path d="M71.2,23.1c-0.3-0.3-0.5-0.7-0.6-1.1c-0.1-0.5-0.2-1.2-0.2-2.2l0-1.7v-7.4c0-1.6-0.6-2.8-1.7-3.8c-1.1-1-2.6-1.4-4.3-1.4   c-1.3,0-2.5,0.3-3.7,0.8c-1.1,0.5-2.2,1.3-3.3,2.4c-0.7-1-1.3-1.8-1.9-2.2c-0.9-0.7-2.1-1.1-3.5-1.1c-1.2,0-2.5,0.3-3.6,0.8   c-1.1,0.5-2.1,1.2-3,2.2c-0.1-1-0.2-2-0.5-3l0,0l-5.5,0.7l0,0l-0.6,0.6l0.1,0c0.6,0,1.2,0.2,1.5,0.3c0.3,0.2,0.6,0.5,0.9,0.9   c0.2,0.4,0.4,0.9,0.5,1.5c0.1,0.6,0.1,1.7,0.1,3.2v5.4c0,1.3,0,2.3-0.1,2.9c-0.1,0.7-0.2,1.2-0.3,1.5c-0.2,0.5-0.5,0.9-0.9,1.1   c-0.4,0.2-1,0.4-1.9,0.5l-0.1,0l0.5,0.5h9.3v-0.5l0,0c-1.1-0.2-1.8-0.5-2.2-0.9c-0.3-0.3-0.6-0.7-0.7-1.1c-0.1-0.5-0.2-1.2-0.2-2.2   l0-1.6v-4c0-1.3,0.1-2.4,0.2-3.2c0.2-0.8,0.5-1.5,0.9-2.1c0.4-0.7,1-1.2,1.7-1.6c0.7-0.4,1.5-0.6,2.3-0.6c0.7,0,1.4,0.1,1.9,0.4   c0.6,0.3,0.9,0.6,1.3,1.1c0.3,0.5,0.5,1.1,0.6,1.9c0.1,0.8,0.2,2.1,0.2,3.8V18c0,1.3,0,2.2-0.1,2.9c-0.1,0.7-0.2,1.2-0.3,1.5   c-0.2,0.5-0.6,0.9-0.9,1.1c-0.4,0.2-1,0.4-1.9,0.5l-0.1,0l0.5,0.5h9.3v-0.5l0,0c-1.1-0.2-1.9-0.5-2.3-0.9c-0.3-0.3-0.5-0.7-0.6-1.1   c-0.1-0.5-0.2-1.2-0.2-2.2l0-1.7v-4.2c0-2.4,0.4-4,1.1-5.2c0.8-1.3,2.1-2.1,3.8-2.1c1.7,0,2.8,0.5,3.5,1.7c0.3,0.5,0.5,1.2,0.6,1.9   c0.1,0.7,0.2,1.9,0.2,3.5V18c0,1.3,0,2.2-0.1,2.9c-0.1,0.7-0.2,1.2-0.3,1.5c-0.2,0.5-0.5,0.9-0.9,1.1c-0.4,0.2-1,0.4-1.9,0.5   l-0.1,0l0.5,0.5h9.3v-0.5l0,0C72.4,23.7,71.7,23.4,71.2,23.1z"></path>
	<path d="M125.2,21.8L125.2,21.8c-0.6,0.8-1,1.2-1.5,1.5c-0.4,0.3-0.9,0.5-1.5,0.5c-0.5,0-1-0.1-1.4-0.3c-0.4-0.2-0.8-0.5-1.1-0.8   c-0.5-0.6-0.8-1.7-0.8-3.3V6.9h5.8l-1.1-1.1h-4.7V0.9L118.1,0l-0.2,0.8c-0.3,0.8-0.5,1.5-0.8,2.1c-0.3,0.5-0.7,1.1-1.2,1.6   c-0.8,0.9-1.7,1.5-2.6,1.8l0,0v0.6h2.3v13.1c0,1.3,0.1,2.2,0.2,2.7c0.1,0.5,0.4,0.9,0.8,1.3c0.8,0.7,2.1,1,3.8,1   c1.3,0,2.4-0.2,3.3-0.6c0.9-0.4,1.5-1.1,2-1.9l0,0L125.2,21.8z"></path>
	<g>
		<path d="M124,3.3h-0.3V1.2h-0.8V0.9h1.9v0.3H124V3.3z"></path>
		<path d="M126.3,2.7L126.3,2.7l0.7-1.8h0.5v2.4h-0.3v-2h0l-0.8,2h-0.2l-0.8-2h0v2h-0.3V0.9h0.5L126.3,2.7z"></path>
	</g>
</g>
<g>
	<path class="st0" d="M3.3,31.8h1.1v6H3.3V31.8z"></path>
	<path class="st0" d="M10.1,31.8h1.4l2.8,4.5h0v-4.5h1.1v6H14l-2.9-4.7h0v4.7h-1.1V31.8z"></path>
	<path class="st0" d="M22.3,32.8h-1.8v-0.9h4.8v0.9h-1.8v5.1h-1.1V32.8z"></path>
	<path class="st0" d="M30.4,31.8h4v0.9h-2.9v1.5h2.8v0.9h-2.8v1.7h3.1v1h-4.1V31.8z"></path>
	<path class="st0" d="M40,31.8H42c0.3,0,0.6,0,0.8,0.1c0.3,0.1,0.5,0.2,0.7,0.3s0.4,0.3,0.5,0.5c0.1,0.2,0.2,0.5,0.2,0.8   c0,0.4-0.1,0.8-0.4,1.1c-0.2,0.3-0.6,0.5-1,0.6l1.6,2.7h-1.3l-1.4-2.6H41v2.6H40V31.8z M41.9,34.4c0.2,0,0.3,0,0.5,0   c0.2,0,0.3-0.1,0.4-0.1s0.2-0.2,0.3-0.3c0.1-0.1,0.1-0.3,0.1-0.4c0-0.2,0-0.3-0.1-0.4c-0.1-0.1-0.2-0.2-0.3-0.3   c-0.1-0.1-0.2-0.1-0.4-0.1s-0.3,0-0.4,0h-1v1.7H41.9z"></path>
	<path class="st0" d="M49.7,31.8h1.4l2.8,4.5h0v-4.5H55v6h-1.4l-2.9-4.7h0v4.7h-1.1V31.8z"></path>
	<path class="st0" d="M62.7,31.8h0.9l2.6,6H65l-0.6-1.4h-2.6l-0.5,1.4h-1.2L62.7,31.8z M64,35.6l-0.9-2.4l-0.9,2.4H64z"></path>
	<path class="st0" d="M71.9,32.8h-1.8v-0.9h4.8v0.9H73v5.1h-1.1V32.8z"></path>
	<path class="st0" d="M79.9,31.8H81v6h-1.1V31.8z"></path>
	<path class="st0" d="M86.4,34.8c0-0.5,0.1-0.9,0.2-1.3c0.2-0.4,0.4-0.7,0.7-1c0.3-0.3,0.6-0.5,1-0.6c0.4-0.1,0.8-0.2,1.3-0.2   c0.5,0,0.9,0.1,1.3,0.2c0.4,0.1,0.7,0.4,1,0.6c0.3,0.3,0.5,0.6,0.7,1c0.2,0.4,0.2,0.8,0.2,1.3c0,0.5-0.1,0.9-0.2,1.3   c-0.2,0.4-0.4,0.7-0.7,1s-0.6,0.5-1,0.7c-0.4,0.2-0.8,0.2-1.3,0.2c-0.5,0-0.9-0.1-1.3-0.2c-0.4-0.2-0.7-0.4-1-0.7s-0.5-0.6-0.7-1   C86.5,35.7,86.4,35.3,86.4,34.8z M87.6,34.8c0,0.3,0,0.6,0.1,0.9c0.1,0.3,0.2,0.5,0.4,0.7c0.2,0.2,0.4,0.4,0.7,0.5   c0.3,0.1,0.5,0.2,0.8,0.2c0.3,0,0.6-0.1,0.8-0.2s0.5-0.3,0.7-0.5c0.2-0.2,0.3-0.4,0.4-0.7c0.1-0.3,0.1-0.6,0.1-0.9   c0-0.3,0-0.6-0.1-0.9c-0.1-0.3-0.2-0.5-0.4-0.7s-0.4-0.4-0.7-0.5s-0.5-0.2-0.9-0.2s-0.6,0.1-0.8,0.2s-0.5,0.3-0.7,0.5   s-0.3,0.4-0.4,0.7S87.6,34.5,87.6,34.8z"></path>
	<path class="st0" d="M98.3,31.8h1.4l2.8,4.5h0v-4.5h1.1v6h-1.4l-2.9-4.7h0v4.7h-1.1V31.8z"></path>
	<path class="st0" d="M111.3,31.8h0.9l2.6,6h-1.2l-0.6-1.4h-2.6l-0.5,1.4h-1.2L111.3,31.8z M112.7,35.6l-0.9-2.4l-0.9,2.4H112.7z"></path>
	<path class="st0" d="M119.9,31.8h1.1v5.1h2.6v1h-3.6V31.8z"></path>
</g>
</svg>
